{
  "accessors": [
    {
      "bufferView": 2,
      "componentType": 5126,
      "count": 1762,
      "max": [
        0.74369597434997559,
        2.8110499382019043,
        1.8801690340042114
      ],
      "min": [
        -0.74369698762893677,
        -0.663673996925354,
        0.47602298855781555
      ],
      "type": "VEC3"
    },
    {
      "bufferView": 2,
      "byteOffset": 21144,
      "componentType": 5126,
      "count": 1762,
      "max": [
        1,
        1,
        1
      ],
      "min": [
        -1,
        -1,
        -1
      ],
      "type": "VEC3"
    },
    {
      "bufferView": 3,
      "componentType": 5126,
      "count": 1762,
      "max": [
        1,
        1,
        0.9986611008644104,
        1
      ],
      "min": [
        -1,
        -1,
        -0.99849194288253784,
        -1
      ],
      "type": "VEC4"
    },
    {
      "bufferView": 1,
      "componentType": 5126,
      "count": 1762,
      "max": [
        0.99581700563430786,
        0.99965900182723999
      ],
      "min": [
        0.00034100000630132854,
        0.00034100000630132854
      ],
      "type": "VEC2"
    },
    {
      "bufferView": 0,
      "componentType": 5125,
      "count": 5880,
      "max": [
        1761
      ],
      "min": [
        0
      ],
      "type": "SCALAR"
    },
    {
      "bufferView": 2,
      "byteOffset": 42288,
      "componentType": 5126,
      "count": 4706,
      "max": [
        0.74725401401519775,
        0.2411780059337616,
        1.193295955657959
      ],
      "min": [
        -0.74725401401519775,
        -1.1254630088806152,
        0.51877897977828979
      ],
      "type": "VEC3"
    },
    {
      "bufferView": 2,
      "byteOffset": 98760,
      "componentType": 5126,
      "count": 4706,
      "max": [
        1,
        0.99563771486282349,
        0.99927401542663574
      ],
      "min": [
        -1,
        -0.99563771486282349,
        -0.99973779916763306
      ],
      "type": "VEC3"
    },
    {
      "bufferView": 3,
      "byteOffset": 28192,
      "componentType": 5126,
      "count": 4706,
      "max": [
        1,
        0.99621593952178955,
        0.99810904264450073,
        1
      ],
      "min": [
        -1,
        -0.99945491552352905,
        -0.99810898303985596,
        -1
      ],
      "type": "VEC4"
    },
    {
      "bufferView": 1,
      "byteOffset": 14096,
      "componentType": 5126,
      "count": 4706,
      "max": [
        0.99098300933837891,
        0.9911310076713562
      ],
      "min": [
        0.0066089997999370098,
        0.025475999340415001
      ],
      "type": "VEC2"
    },
    {
      "bufferView": 0,
      "byteOffset": 23520,
      "componentType": 5125,
      "count": 25152,
      "max": [
        4705
      ],
      "min": [
        0
      ],
      "type": "SCALAR"
    },
    {
      "bufferView": 2,
      "byteOffset": 155232,
      "componentType": 5126,
      "count": 10057,
      "max": [
        1.6126999855041504,
        3.5980188846588135,
        2.1552939414978027
      ],
      "min": [
        -1.6126999855041504,
        -3.3600099086761475,
        0.048689000308513641
      ],
      "type": "VEC3"
    },
    {
      "bufferView": 2,
      "byteOffset": 275916,
      "componentType": 5126,
      "count": 10057,
      "max": [
        1,
        1,
        1
      ],
      "min": [
        -1,
        -1,
        -1
      ],
      "type": "VEC3"
    },
    {
      "bufferView": 3,
      "byteOffset": 103488,
      "componentType": 5126,
      "count": 10057,
      "max": [
        1,
        1,
        1,
        1
      ],
      "min": [
        -1,
        -1,
        -1,
        -1
      ],
      "type": "VEC4"
    },
    {
      "bufferView": 1,
      "byteOffset": 51744,
      "componentType": 5126,
      "count": 10057,
      "max": [
        0.99920600652694702,
        0.99619597196578979
      ],
      "min": [
        0.00079399999231100082,
        0.00079399999231100082
      ],
      "type": "VEC2"
    },
    {
      "bufferView": 0,
      "byteOffset": 124128,
      "componentType": 5125,
      "count": 37452,
      "max": [
        10056
      ],
      "min": [
        0
      ],
      "type": "SCALAR"
    },
    {
      "bufferView": 2,
      "byteOffset": 396600,
      "componentType": 5126,
      "count": 694,
      "max": [
        0.74369698762893677,
        2.8010499477386475,
        1.8891570568084717
      ],
      "min": [
        -0.74369698762893677,
        -0.21606899797916412,
        1.1111400127410889
      ],
      "type": "VEC3"
    },
    {
      "bufferView": 2,
      "byteOffset": 404928,
      "componentType": 5126,
      "count": 694,
      "max": [
        0.99999988079071045,
        0.99973779916763306,
        0.99981945753097534
      ],
      "min": [
        -0.99999988079071045,
        -1,
        -0.99984163045883179
      ],
      "type": "VEC3"
    },
    {
      "bufferView": 3,
      "byteOffset": 264400,
      "componentType": 5126,
      "count": 694,
      "max": [
        0.94425094127655029,
        0.99984157085418701,
        1,
        1
      ],
      "min": [
        -0.94418776035308838,
        -0.8292195200920105,
        -0.99973577260971069,
        1
      ],
      "type": "VEC4"
    },
    {
      "bufferView": 1,
      "byteOffset": 132200,
      "componentType": 5126,
      "count": 694,
      "max": [
        0.828777015209198,
        0.99987101554870605
      ],
      "min": [
        0.00012899999273940921,
        0.00012899999273940921
      ],
      "type": "VEC2"
    },
    {
      "bufferView": 0,
      "byteOffset": 273936,
      "componentType": 5125,
      "count": 3792,
      "max": [
        693
      ],
      "min": [
        0
      ],
      "type": "SCALAR"
    },
    {
      "bufferView": 2,
      "byteOffset": 413256,
      "componentType": 5126,
      "count": 2104,
      "max": [
        1.8219879865646362,
        -1.6262099742889404,
        1.5415999889373779
      ],
      "min": [
        -1.8219879865646362,
        -3.2223629951477051,
        -0.053699001669883728
      ],
      "type": "VEC3"
    },
    {
      "bufferView": 2,
      "byteOffset": 438504,
      "componentType": 5126,
      "count": 2104,
      "max": [
        0.99999785423278809,
        0.99999785423278809,
        1
      ],
      "min": [
        -0.99999785423278809,
        -0.99999785423278809,
        -1
      ],
      "type": "VEC3"
    },
    {
      "bufferView": 3,
      "byteOffset": 275504,
      "componentType": 5126,
      "count": 2104,
      "max": [
        0.96425545215606689,
        0.99999827146530151,
        1,
        1
      ],
      "min": [
        -0.96425545215606689,
        -0.99999797344207764,
        -1,
        -1
      ],
      "type": "VEC4"
    },
    {
      "bufferView": 1,
      "byteOffset": 137752,
      "componentType": 5126,
      "count": 2104,
      "max": [
        0.98698198795318604,
        0.98904901742935181
      ],
      "min": [
        0.008740999735891819,
        0.043451998382806778
      ],
      "type": "VEC2"
    },
    {
      "bufferView": 0,
      "byteOffset": 289104,
      "componentType": 5125,
      "count": 11136,
      "max": [
        2103
      ],
      "min": [
        0
      ],
      "type": "SCALAR"
    },
    {
      "bufferView": 2,
      "byteOffset": 463752,
      "componentType": 5126,
      "count": 2104,
      "max": [
        1.5483959913253784,
        3.3584179878234863,
        1.3189539909362793
      ],
      "min": [
        -1.5483959913253784,
        1.9963419437408447,
        -0.042392998933792114
      ],
      "type": "VEC3"
    },
    {
      "bufferView": 2,
      "byteOffset": 489000,
      "componentType": 5126,
      "count": 2104,
      "max": [
        0.99999785423278809,
        0.99999785423278809,
        1
      ],
      "min": [
        -0.99999785423278809,
        -0.99999785423278809,
        -1
      ],
      "type": "VEC3"
    },
    {
      "bufferView": 3,
      "byteOffset": 309168,
      "componentType": 5126,
      "count": 2104,
      "max": [
        0.96425539255142212,
        0.99999827146530151,
        1,
        1
      ],
      "min": [
        -0.96425545215606689,
        -0.99999797344207764,
        -1,
        -1
      ],
      "type": "VEC4"
    },
    {
      "bufferView": 1,
      "byteOffset": 154584,
      "componentType": 5126,
      "count": 2104,
      "max": [
        0.98698198795318604,
        0.98904901742935181
      ],
      "min": [
        0.008740999735891819,
        0.043451998382806778
      ],
      "type": "VEC2"
    },
    {
      "bufferView": 0,
      "byteOffset": 333648,
      "componentType": 5125,
      "count": 11136,
      "max": [
        2103
      ],
      "min": [
        0
      ],
      "type": "SCALAR"
    },
    {
      "bufferView": 2,
      "byteOffset": 514248,
      "componentType": 5126,
      "count": 1236,
      "max": [
        0.33171498775482178,
        1.9478230476379395,
        1.7676420211791992
      ],
      "min": [
        -0.33171600103378296,
        0.36609598994255066,
        0.47602298855781555
      ],
      "type": "VEC3"
    },
    {
      "bufferView": 2,
      "byteOffset": 529080,
      "componentType": 5126,
      "count": 1236,
      "max": [
        0.99967783689498901,
        0.9999995231628418,
        1
      ],
      "min": [
        -0.99967783689498901,
        -0.99993157386779785,
        -0.97852963209152222
      ],
      "type": "VEC3"
    },
    {
      "bufferView": 3,
      "byteOffset": 342832,
      "componentType": 5126,
      "count": 1236,
      "max": [
        1,
        0.99946892261505127,
        0.98501569032669067,
        1
      ],
      "min": [
        -1,
        -0.99947988986968994,
        -0.99556529521942139,
        -1
      ],
      "type": "VEC4"
    },
    {
      "bufferView": 1,
      "byteOffset": 171416,
      "componentType": 5126,
      "count": 1236,
      "max": [
        0.97853100299835205,
        0.98501801490783691
      ],
      "min": [
        0.018199000507593155,
        0.0061670001596212387
      ],
      "type": "VEC2"
    },
    {
      "bufferView": 0,
      "byteOffset": 378192,
      "componentType": 5125,
      "count": 6552,
      "max": [
        1235
      ],
      "min": [
        0
      ],
      "type": "SCALAR"
    }
  ],
  "asset": {
    "extras": {
      "author": "Samize (https://sketchfab.com/samize)",
      "license": "CC-BY-4.0 (http://creativecommons.org/licenses/by/4.0/)",
      "source": "https://sketchfab.com/models/1eee26c0b72342ddbec8601a6d05620d",
      "title": "Substance Futuristic Sports Car"
    },
    "generator": "Sketchfab-3.24.1",
    "version": "2.0"
  },
  "bufferViews": [
    {
      "buffer": 0,
      "byteLength": 404400,
      "byteOffset": 0,
      "name": "floatBufferViews",
      "target": 34963
    },
    {
      "buffer": 0,
      "byteLength": 181304,
      "byteOffset": 404400,
      "byteStride": 8,
      "name": "floatBufferViews",
      "target": 34962
    },
    {
      "buffer": 0,
      "byteLength": 543912,
      "byteOffset": 585704,
      "byteStride": 12,
      "name": "floatBufferViews",
      "target": 34962
    },
    {
      "buffer": 0,
      "byteLength": 362608,
      "byteOffset": 1129616,
      "byteStride": 16,
      "name": "floatBufferViews",
      "target": 34962
    }
  ],
  "buffers": [
    {
      "byteLength": 1492224,
      "uri": "scene.bin"
    }
  ],
  "images": [
    {
      "uri": "textures/Mat_BWheel_metallicRoughness.png"
    },
    {
      "uri": "textures/Mat_BWheel_normal.png"
    },
    {
      "uri": "textures/Mat_BWheel_baseColor.png"
    },
    {
      "uri": "textures/Mat_Exterior_metallicRoughness.png"
    },
    {
      "uri": "textures/Mat_Exterior_normal.png"
    },
    {
      "uri": "textures/Mat_Exterior_baseColor.png"
    },
    {
      "uri": "textures/Mat_FWheel_metallicRoughness.png"
    },
    {
      "uri": "textures/Mat_FWheel_normal.png"
    },
    {
      "uri": "textures/Mat_FWheel_baseColor.png"
    },
    {
      "uri": "textures/Mat_Glass_metallicRoughness.png"
    },
    {
      "uri": "textures/Mat_Glass_baseColor.png"
    },
    {
      "uri": "textures/Mat_Cockpit_emissive.png"
    },
    {
      "uri": "textures/Mat_Cockpit_metallicRoughness.png"
    },
    {
      "uri": "textures/Mat_Cockpit_normal.png"
    },
    {
      "uri": "textures/Mat_Exhaust_metallicRoughness.png"
    },
    {
      "uri": "textures/Mat_Exhaust_normal.png"
    },
    {
      "uri": "textures/Mat_Exhaust_baseColor.png"
    },
    {
      "uri": "textures/Mat_Seat_metallicRoughness.png"
    },
    {
      "uri": "textures/Mat_Seat_normal.png"
    }
  ],
  "materials": [
    {
      "doubleSided": false,
      "emissiveFactor": [
        0,
        0,
        0
      ],
      "name": "Mat_BWheel",
      "normalTexture": {
        "index": 1,
        "scale": 1,
        "texCoord": 0
      },
      "occlusionTexture": {
        "index": 0,
        "strength": 1,
        "texCoord": 0
      },
      "pbrMetallicRoughness": {
        "baseColorFactor": [
          1,
          1,
          1,
          1
        ],
        "baseColorTexture": {
          "index": 2,
          "texCoord": 0
        },
        "metallicFactor": 1,
        "metallicRoughnessTexture": {
          "index": 0,
          "texCoord": 0
        },
        "roughnessFactor": 1
      }
    },
    {
      "doubleSided": false,
      "emissiveFactor": [
        1,
        1,
        1
      ],
      "emissiveTexture": {
        "index": 11,
        "texCoord": 0
      },
      "name": "Mat_Cockpit",
      "normalTexture": {
        "index": 13,
        "scale": 1,
        "texCoord": 0
      },
      "occlusionTexture": {
        "index": 12,
        "strength": 1,
        "texCoord": 0
      },
      "pbrMetallicRoughness": {
        "baseColorFactor": [
          0.065187917299999995,
          0.065187917299999995,
          0.065187917299999995,
          1
        ],
        "metallicFactor": 0,
        "metallicRoughnessTexture": {
          "index": 12,
          "texCoord": 0
        },
        "roughnessFactor": 1
      }
    },
    {
      "doubleSided": false,
      "emissiveFactor": [
        0,
        0,
        0
      ],
      "name": "Mat_Exhaust",
      "normalTexture": {
        "index": 15,
        "scale": 1,
        "texCoord": 0
      },
      "occlusionTexture": {
        "index": 14,
        "strength": 1,
        "texCoord": 0
      },
      "pbrMetallicRoughness": {
        "baseColorFactor": [
          1,
          1,
          1,
          1
        ],
        "baseColorTexture": {
          "index": 16,
          "texCoord": 0
        },
        "metallicFactor": 1,
        "metallicRoughnessTexture": {
          "index": 14,
          "texCoord": 0
        },
        "roughnessFactor": 1
      }
    },
    {
      "doubleSided": false,
      "emissiveFactor": [
        0,
        0,
        0
      ],
      "name": "Mat_Exterior",
      "normalTexture": {
        "index": 4,
        "scale": 1,
        "texCoord": 0
      },
      "occlusionTexture": {
        "index": 3,
        "strength": 1,
        "texCoord": 0
      },
      "pbrMetallicRoughness": {
        "baseColorFactor": [
          1,
          1,
          1,
          1
        ],
        "baseColorTexture": {
          "index": 5,
          "texCoord": 0
        },
        "metallicFactor": 1,
        "metallicRoughnessTexture": {
          "index": 3,
          "texCoord": 0
        },
        "roughnessFactor": 1
      }
    },
    {
      "doubleSided": false,
      "emissiveFactor": [
        0,
        0,
        0
      ],
      "name": "Mat_FWheel",
      "normalTexture": {
        "index": 7,
        "scale": 1,
        "texCoord": 0
      },
      "occlusionTexture": {
        "index": 6,
        "strength": 1,
        "texCoord": 0
      },
      "pbrMetallicRoughness": {
        "baseColorFactor": [
          1,
          1,
          1,
          1
        ],
        "baseColorTexture": {
          "index": 8,
          "texCoord": 0
        },
        "metallicFactor": 1,
        "metallicRoughnessTexture": {
          "index": 6,
          "texCoord": 0
        },
        "roughnessFactor": 1
      }
    },
    {
      "alphaMode": "BLEND",
      "doubleSided": true,
      "emissiveFactor": [
        0,
        0,
        0
      ],
      "name": "Mat_Glass",
      "occlusionTexture": {
        "index": 9,
        "strength": 1,
        "texCoord": 0
      },
      "pbrMetallicRoughness": {
        "baseColorFactor": [
          0.35999999999999999,
          0.35999999999999999,
          0.35999999999999999,
          0.80000000000000004
        ],
        "baseColorTexture": {
          "index": 10,
          "texCoord": 0
        },
        "metallicFactor": 0,
        "metallicRoughnessTexture": {
          "index": 9,
          "texCoord": 0
        },
        "roughnessFactor": 1
      }
    },
    {
      "doubleSided": false,
      "emissiveFactor": [
        0,
        0,
        0
      ],
      "name": "Mat_Seat",
      "normalTexture": {
        "index": 18,
        "scale": 1,
        "texCoord": 0
      },
      "occlusionTexture": {
        "index": 17,
        "strength": 1,
        "texCoord": 0
      },
      "pbrMetallicRoughness": {
        "baseColorFactor": [
          0.41591835840000002,
          0.24978873260000001,
          0.041316768199999999,
          1
        ],
        "metallicFactor": 0,
        "roughnessFactor": 0.81000000000000005
      }
    }
  ],
  "meshes": [
    {
      "primitives": [
        {
          "attributes": {
            "NORMAL": 1,
            "POSITION": 0,
            "TANGENT": 2,
            "TEXCOORD_0": 3
          },
          "indices": 4,
          "material": 1,
          "mode": 4
        }
      ]
    },
    {
      "primitives": [
        {
          "attributes": {
            "NORMAL": 6,
            "POSITION": 5,
            "TANGENT": 7,
            "TEXCOORD_0": 8
          },
          "indices": 9,
          "material": 2,
          "mode": 4
        }
      ]
    },
    {
      "primitives": [
        {
          "attributes": {
            "NORMAL": 11,
            "POSITION": 10,
            "TANGENT": 12,
            "TEXCOORD_0": 13
          },
          "indices": 14,
          "material": 3,
          "mode": 4
        }
      ]
    },
    {
      "primitives": [
        {
          "attributes": {
            "NORMAL": 16,
            "POSITION": 15,
            "TANGENT": 17,
            "TEXCOORD_0": 18
          },
          "indices": 19,
          "material": 5,
          "mode": 4
        }
      ]
    },
    {
      "primitives": [
        {
          "attributes": {
            "NORMAL": 21,
            "POSITION": 20,
            "TANGENT": 22,
            "TEXCOORD_0": 23
          },
          "indices": 24,
          "material": 0,
          "mode": 4
        }
      ]
    },
    {
      "primitives": [
        {
          "attributes": {
            "NORMAL": 26,
            "POSITION": 25,
            "TANGENT": 27,
            "TEXCOORD_0": 28
          },
          "indices": 29,
          "material": 4,
          "mode": 4
        }
      ]
    },
    {
      "primitives": [
        {
          "attributes": {
            "NORMAL": 31,
            "POSITION": 30,
            "TANGENT": 32,
            "TEXCOORD_0": 33
          },
          "indices": 34,
          "material": 6,
          "mode": 4
        }
      ]
    }
  ],
  "nodes": [
    {
      "children": [
        1
      ],
      "name": "RootNode (gltf orientation matrix)",
      "rotation": [
        -0.70710678118654746,
        -0,
        -0,
        0.70710678118654757
      ]
    },
    {
      "children": [
        2
      ],
      "name": "RootNode (model correction matrix)"
    },
    {
      "children": [
        3,
        4,
        5,
        6,
        7,
        8,
        9
      ],
      "name": "Substance.obj.cleaner"
    },
    {
      "mesh": 0,
      "name": ""
    },
    {
      "mesh": 1,
      "name": ""
    },
    {
      "mesh": 2,
      "name": ""
    },
    {
      "mesh": 3,
      "name": ""
    },
    {
      "mesh": 4,
      "name": ""
    },
    {
      "mesh": 5,
      "name": ""
    },
    {
      "mesh": 6,
      "name": ""
    }
  ],
  "samplers": [
    {
      "magFilter": 9729,
      "minFilter": 9987,
      "wrapS": 10497,
      "wrapT": 10497
    }
  ],
  "scene": 0,
  "scenes": [
    {
      "name": "OSG_Scene",
      "nodes": [
        0
      ]
    }
  ],
  "textures": [
    {
      "sampler": 0,
      "source": 0
    },
    {
      "sampler": 0,
      "source": 1
    },
    {
      "sampler": 0,
      "source": 2
    },
    {
      "sampler": 0,
      "source": 3
    },
    {
      "sampler": 0,
      "source": 4
    },
    {
      "sampler": 0,
      "source": 5
    },
    {
      "sampler": 0,
      "source": 6
    },
    {
      "sampler": 0,
      "source": 7
    },
    {
      "sampler": 0,
      "source": 8
    },
    {
      "sampler": 0,
      "source": 9
    },
    {
      "sampler": 0,
      "source": 10
    },
    {
      "sampler": 0,
      "source": 11
    },
    {
      "sampler": 0,
      "source": 12
    },
    {
      "sampler": 0,
      "source": 13
    },
    {
      "sampler": 0,
      "source": 14
    },
    {
      "sampler": 0,
      "source": 15
    },
    {
      "sampler": 0,
      "source": 16
    },
    {
      "sampler": 0,
      "source": 17
    },
    {
      "sampler": 0,
      "source": 18
    }
  ]
}

